<svg width="299" height="203" viewBox="0 0 299 203" fill="none" xmlns="http://www.w3.org/2000/svg">
<path d="M4.92213 19.2102C0.886967 19.7146 11.4362 22.9226 12.6106 23.268C14.4208 23.8004 21.5185 27.8598 16.4549 27.8598" stroke="black" stroke-width="5" stroke-linecap="round"/>
<path d="M3 19.2102C6.33587 18.8766 9.32412 16.3379 12.6106 15.5795C16.935 14.5816 22.0932 15.3659 26.5461 15.3659C27.6392 15.3659 36.0371 16.0201 31.8319 15.4193C29.279 15.0546 26.5149 15.3659 23.9298 15.3659C19.1179 15.3659 14.5706 15.3449 10.208 17.7686C7.34269 19.3604 0.194032 18.4458 5.88319 21.1323C9.50486 22.8425 12.5211 24.9412 15.921 26.8987C18.3006 28.2688 20.4315 30.8967 16.4549 28.3403C12.2802 25.6565 3.42714 21.1323 3.42714 21.1323C3.42714 21.1323 19.6759 26.1562 22.6484 33.0922C22.6593 33.1176 17.5432 29.8184 16.4549 28.8208C13.8689 26.4503 9.72327 24.2567 6.41712 23.0544C1.10577 21.123 14.2124 19.2102 16.4549 19.2102C20.7441 19.2102 25.0333 19.2102 29.3225 19.2102C31.2335 19.2102 25.4686 19.1723 23.6095 18.7297C22.4959 18.4645 16.2798 16.8261 20.5127 18.0356C22.5976 18.6312 26.7482 19.2102 28.9487 19.2102C31.0636 19.2102 24.6091 17.2881 23.3425 17.2881C23.226 17.2881 38.1401 17.2881 29.6962 17.2881C25.5471 17.2881 29.2557 17.2881 31.1912 17.2881C34.0372 17.2881 25.5283 16.7129 22.7018 16.3804C19.906 16.0515 16.921 16.327 14.1056 16.327C12.4216 16.327 9.88532 15.7298 12.8242 16.5406C16.9722 17.6848 21.3989 17.3521 25.5316 18.7297C29.3706 20.0093 28.9487 19.4428 28.9487 16.327" stroke="black" stroke-width="5" stroke-linecap="round"/>
<path d="M30.8709 19.2102C33.9889 19.2102 37.8301 12.9008 41.0154 11.3081C43.5076 10.062 47.3683 8.70862 49.3447 6.92992C57.8405 -0.716314 74.2052 4.33225 82.715 9.11901C87.8347 11.9989 91.8788 15.5719 96.7572 18.6763C99.9534 20.7102 98.0718 20.1087 96.0097 18.783C93.2077 16.9817 89.4611 14.7427 87.0398 12.4827C83.3585 9.04693 77.0247 7.69006 72.6772 5.27475C68.9513 3.20483 63.8225 3.83316 59.7028 3.83316C55.4365 3.83316 50.3489 7.76959 47.209 10.5606C44.5532 12.9213 41.3036 14.1267 38.5594 15.5795C36.8452 16.487 37.5115 19.2102 35.1957 19.2102C33.5456 19.2102 34.7299 17.8072 35.6762 16.8609C40.5868 11.9503 44.3655 6.7581 51.9609 5.80868C62.5191 4.4889 73.5173 7.65136 82.715 13.0167C85.6674 14.7389 89.2929 16.1647 91.8985 18.2491C92.5486 18.7692 100.098 22.0934 95.2622 22.0934" stroke="black" stroke-width="5" stroke-linecap="round"/>
<path d="M98.1454 23.0544C98.3321 24.548 100.295 24.6984 101.456 25.03C103.06 25.4882 100.141 24.943 99.6404 24.4426C96.8974 21.6997 101.095 24.4676 102.15 25.03C107.103 27.6716 114.372 29.5195 118.595 33.0922C120.671 34.8487 110.953 30.43 109.838 29.8353C102.632 25.9918 116.234 31.146 117.954 31.7574C123.958 33.8921 129.814 36.6257 135.947 38.3781C140.777 39.7581 126.592 34.7116 121.958 32.7719C114.111 29.4867 106.087 25.6845 97.9318 23.268C92.4537 21.6449 101.592 24.9363 102.63 25.4037C109.553 28.5188 118.476 31.9012 124.628 36.2958C127.359 38.2461 116.019 33.2598 114.697 32.6651C113.324 32.0474 100.943 25.5875 107.009 28.0733C113.917 30.9045 121.232 33.2419 127.938 36.5093C129.372 37.2078 133.151 38.5672 129.861 37.4704" stroke="black" stroke-width="5" stroke-linecap="round"/>
<path d="M129.86 36.5093C131.132 37.6395 133.238 37.8821 134.879 38.2179C138.827 39.0253 142.332 40.3716 146.092 41.8486C155.187 45.4219 161.929 54.9736 168.517 61.7106C173.98 67.298 178.796 72.6926 184.641 77.8885C185.748 78.872 192.602 83.9154 191.155 81.6794C187.25 75.6438 178.067 70.6747 172.628 65.8752C168.139 61.9146 163.93 56.5815 158.692 53.8085C150.606 49.5276 144.485 39.685 135.627 37.4704" stroke="black" stroke-width="5" stroke-linecap="round"/>
<path d="M190.408 82.6404C188.969 81.9635 183.816 80.7406 187.951 82.6404C201.282 88.7653 219.514 91.412 233.976 92.1443C240.773 92.4885 250.292 91.3412 256.721 94.3868C259.881 95.8835 262.486 95.7946 265.851 96.1487C270.329 96.6201 274.925 98.7673 279.359 99.726C282.982 100.509 284.88 102.369 288.062 103.784C289.948 104.622 296.125 109.798 296.125 112.006C296.125 113.139 294.576 110.351 293.775 109.55C292.094 107.869 290.439 106.032 288.383 104.798C280.532 100.088 270.332 98.7997 261.526 96.8428C251.287 94.5674 241.06 93.319 230.772 91.5036C222.373 90.0214 213.267 88.6481 204.824 88.4068C199.873 88.2654 195.645 87.5053 190.888 86.0576C188.24 85.2515 179.951 84.5626 182.719 84.5626" stroke="black" stroke-width="5" stroke-linecap="round"/>
<path d="M291.319 111.472C293.667 111.603 299.372 113.779 293.989 113.394C288.478 113.001 283.426 109.874 278.292 108.162C270.987 105.727 261.019 103.784 253.304 103.784C249.507 103.784 246.195 102.537 242.465 101.915C235.009 100.672 257.071 105.819 264.41 107.628C269.307 108.836 274.518 110.173 279.253 111.526C280.774 111.96 278.229 112.433 277.864 112.433C276.898 112.433 280.396 113.956 281.175 114.356C283.424 115.511 295.46 120.756 287.689 119.374C279.511 117.921 270.355 117.252 262.487 114.302C253.625 110.979 242.874 107.628 233.335 107.628C230.737 107.628 243.729 107.628 241.13 107.628C235.035 107.628 216.775 106.667 222.87 106.667C226.391 106.667 229.922 106.744 233.442 106.667C238.985 106.547 236.228 106.727 232.054 106.453C228.653 106.231 218.447 105.706 221.856 105.706C225.451 105.706 229.168 106.027 232.694 105.225C238.665 103.869 238.82 104.745 232.267 104.745C226.655 104.745 221.07 105.706 215.395 105.706C213.934 105.706 201.406 106.611 201.406 107.628C201.406 108.091 202.333 107.641 202.795 107.681C206.176 107.976 209.541 108.502 212.886 109.07C217.492 109.852 222.244 111.339 226.928 111.472C230.364 111.571 219.508 110.191 218.545 110.031C217.691 109.888 211.832 108.346 216.837 109.71C221.681 111.032 226.539 112.443 231.146 114.462C237.274 117.149 243.767 120.968 247.858 126.422C249.737 128.928 241.985 127.729 240.81 127.597C229.544 126.327 218.083 123.005 206.746 123.005C200.426 123.005 194.609 120.793 188.432 120.175C184.751 119.807 173.68 119.161 177.38 119.161C190.915 119.161 203.883 119.74 217.317 121.083C221.373 121.489 225.361 122.173 229.384 122.792C232.411 123.257 235.733 122.407 238.674 123.219C240.084 123.608 246.818 125.905 245.615 124.874C240.069 120.12 229.641 116.948 222.55 115.53C220.845 115.189 201.94 109.798 201.94 110.511" stroke="black" stroke-width="5" stroke-linecap="round"/>
<path d="M175.992 120.122C175.992 121.881 172.713 125.294 171.186 126.102C167.591 128.006 166.968 131.983 163.925 134.591C159.335 138.526 155.575 143.655 149.669 146.017C141.04 149.469 166.322 136.761 172.147 129.519C173.297 128.089 175.991 122.58 175.778 123.005C174.673 125.216 172.907 126.586 171.72 128.772C168.492 134.719 161.453 140.361 156.236 144.629C152.04 148.063 149.821 150.777 144.276 152.318C141.072 153.208 137.534 152.798 134.239 152.798C129.254 152.798 129.861 150.231 129.861 146.071" stroke="black" stroke-width="5" stroke-linecap="round"/>
<path d="M25.1045 38.4315C24.7691 37.7979 21.449 33.815 23.1824 35.5483C25.5492 37.9151 29.0956 42.2224 29.9098 45.4793C30.3466 47.2265 28.9231 42.0036 28.2012 40.3536C26.9762 37.5535 31.1751 45.7183 32.2591 48.576C33.9864 53.1298 32.1773 59.0909 34.2346 63.2056C34.4464 63.6292 34.7151 58.3211 34.7151 57.1722C34.7151 54.4411 34.7151 60.9946 34.7151 61.497C34.7151 64.7271 35.4418 66.2788 34.7151 69.1855" stroke="black" stroke-width="5" stroke-linecap="round"/>
<path d="M110.639 149.915C110.211 146.491 92.4974 143.795 89.4958 143.187C84.3002 142.136 75.8952 140.401 85.8651 142.44C87.4233 142.759 98.2386 147.96 92.379 145.323C87.0677 142.933 81.0801 143.439 76.0409 141.052C71.8499 139.067 66.5789 139.446 62.586 136.674C56.6111 132.524 49.583 127.415 45.0733 121.617C40.3262 115.514 35.646 106.745 33.9676 99.1921C32.7139 93.5505 28.7808 85.5516 30.3903 79.7572C31.5263 75.6677 31.8319 69.1371 31.8319 64.9141C31.8319 61.9369 32.4281 58.1729 31.7785 55.2501C31.466 53.8436 29.9098 51.3524 29.9098 51.3524C29.9098 51.3524 32.6142 55.0616 33.2201 57.2256C34.5249 61.8854 36.8691 71.2273 35.1957 75.913C34.1404 78.8678 33.7541 84.827 33.7541 87.9263C33.7541 90.9961 34.3344 93.5511 34.9287 96.5225C35.4006 98.8818 38.8796 105.252 37.5449 103.25C30.508 92.6946 33.7541 73.7029 33.7541 61.497C33.7541 55.2151 29.4076 45.1531 24.357 41.3147C21.2127 38.925 16.868 34.983 14.7463 31.704C13.6286 29.9767 9.80936 25.4447 11.6496 26.3648C18.0044 29.5422 21.0799 36.2946 24.357 42.0622C27.9308 48.3521 31.7677 55.794 33.5405 62.8852C34.9948 68.7025 37.5983 74.6664 37.5983 80.7183C37.5983 84.7227 37.5983 88.7272 37.5983 92.7316C37.5983 101.23 39.5992 114.15 46.7284 119.695C49.8538 122.126 52.7143 125.286 56.2323 126.849C58.2233 127.734 62.4215 130.636 63.9742 132.189C69.1067 137.321 77.5759 136.902 83.2489 141.265C86.3289 143.635 92.0915 143.906 95.7961 145.59C97.7175 146.464 104.279 147.766 103.912 147.032" stroke="black" stroke-width="5" stroke-linecap="round"/>
<path d="M145.238 149.915C144.906 152.568 135.284 156.504 133.171 157.657C128.983 159.941 128.86 165.968 126.23 169.35C125.308 170.536 128.258 167.077 128.899 165.719C130.548 162.227 131.688 159.769 134.185 156.696C134.597 156.189 138.042 152.743 137.496 155.201C137.071 157.11 134.614 157.929 133.918 159.739C132.608 163.146 130.656 166.489 128.899 169.563C127.156 172.615 129.406 167.187 128.686 166.467C127.221 165.002 125.708 174.668 126.977 172.447C129.267 168.439 126.016 174.663 126.016 176.825" stroke="black" stroke-width="5" stroke-linecap="round"/>
<path d="M126.016 173.942C128.453 173.942 139.205 177.089 140.272 174.422C140.529 173.779 136.121 173.942 135.627 173.942C131.685 173.942 134.247 173.82 136.802 174.155C137.877 174.296 153.895 175.624 147.587 176.771C142.601 177.678 138.143 179.523 133.224 180.616C130.739 181.168 127.475 182.322 125.055 182.591C123.242 182.793 123.37 183.901 125.269 183.339C125.844 183.168 130.715 181.441 130.715 182.111C130.715 183.207 121.266 186.157 120.036 186.649C116.84 187.928 115.031 192.011 111.6 192.202C109.601 192.313 105.16 196.889 103.912 198.449C102.264 200.509 100.567 198.857 99.32 200.104C97.6394 201.784 103.343 196.925 103.858 194.604C104.291 192.656 105.55 190.394 106.795 188.838C108.774 186.364 111.97 184.677 114.27 182.378C115.394 181.254 120.451 179.085 116.406 180.883C113.996 181.954 112.059 184.513 109.198 184.513C106.33 184.513 103.946 184.513 101.509 184.513C95.9923 184.513 89.2767 190.698 84.2633 189.265C82.4361 188.743 86.9774 186.604 88.3212 185.261C89.6518 183.93 92.4886 183.657 94.0876 182.378C97.0776 179.986 105.062 178.747 108.717 178.747C111.011 178.747 113.866 177.784 114.537 175.437C114.751 174.687 118.316 169.53 118.808 169.136C121.369 167.088 125.376 157.467 126.07 154.347C126.647 151.747 125.513 159.835 124.094 162.088C122.866 164.04 122.719 166.269 121.638 168.122C120.749 169.646 119.045 170.344 118.114 172.019C117.011 174.004 115.01 176.631 112.988 177.786C112.146 178.267 110.365 180.683 110.853 179.708C111.995 177.424 113.635 175.491 115.017 173.354C117.888 168.919 121.987 163.702 123.881 158.778C124.554 157.026 126.016 149.703 126.016 152.798" stroke="black" stroke-width="5" stroke-linecap="round"/>
<path d="M130.822 150.876C130.272 153.075 124.206 150.876 122.599 150.876C119.401 150.876 128.958 150.022 132.156 150.022C132.774 150.022 126.801 151.837 125.055 151.837C124.204 151.837 117.452 151.837 121.211 151.837C123.836 151.837 116.101 150.624 113.522 150.129C104.002 148.298 115.254 149.84 118.648 150.449C120.692 150.816 131.972 154.034 123.881 152.264C119.529 151.312 112.403 151.411 108.717 148.954" stroke="black" stroke-width="5" stroke-linecap="round"/>
<path d="M111.6 148.954C111.324 151.162 102.44 164.435 103.485 165.132C104.836 166.033 108.644 145.439 104.873 162.409C104.203 165.425 103.132 167.973 102.951 171.058C102.868 172.468 99.6389 173.332 98.5725 173.942C93.8187 176.658 88.9119 178.537 84.2099 181.15C82.9035 181.875 80.4285 184.152 79.3512 184.46C76.9131 185.156 75.5138 184.721 73.3713 186.649C71.6617 188.188 71.7385 187.296 72.25 184.994C72.7918 182.556 76.4031 180.17 78.1766 178.533C82.3051 174.722 87.4845 172.684 92.5926 170.845C99.7798 168.257 91.0919 171.276 88.5347 172.98" stroke="black" stroke-width="5" stroke-linecap="round"/>
<path d="M88.5347 169.136C85.9719 169.136 83.4091 169.136 80.8462 169.136C77.8369 169.136 76.021 170.596 73.1577 171.005C68.9406 171.607 61.165 174.367 68.1388 169.884C75.8347 164.936 87.1914 164.331 96.2233 164.331" stroke="black" stroke-width="5" stroke-linecap="round"/>
<path d="M97.1843 162.409C97.3315 161.084 99.7481 150.022 100.548 150.022C101.813 150.022 99.4694 160.359 99.1064 161.448" stroke="black" stroke-width="5" stroke-linecap="round"/>
<path d="M102.951 166.253C102.951 167.389 113.097 163.051 111.974 161.928C109.434 159.388 101.054 161.448 107.329 161.448C111.665 161.448 117.827 162.311 111.6 165.078C109.655 165.943 108.07 164.849 106.314 166.253C104.876 167.404 103.912 168.45 103.912 166.253" stroke="black" stroke-width="5" stroke-linecap="round"/>
</svg>
